<?xml version="1.0" encoding="iso-8859-1"?>
<!-- Generator: Adobe Illustrator 17.1.0, SVG Export Plug-In . SVG Version: 6.00 Build 0)  -->
<!DOCTYPE svg PUBLIC "-//W3C//DTD SVG 1.1//EN" "http://www.w3.org/Graphics/SVG/1.1/DTD/svg11.dtd">
<svg version="1.1" id="Capa_1" xmlns="http://www.w3.org/2000/svg" xmlns:xlink="http://www.w3.org/1999/xlink" x="0px" y="0px"
	 viewBox="0 0 297.25 297.25" style="enable-background:new 0 0 297.25 297.25;" xml:space="preserve">
<g>
	<path d="M231.413,107.25h-3.953v-31v-0.438c0-24.575-20.037-50.693-57.479-50.693c-28.727,0-35.704-8.059-43.918-21.33
		c-1.879-3.035-5.416-4.374-8.703-3.551c-2.019,0.458-3.839,1.691-5.013,3.59c-8.201,13.247-15.243,21.291-43.986,21.291
		c-37.015,0-59.228,25.39-59.557,50.131L8.79,202.341c0,33.586,28.803,60.909,64.205,60.909h94.9c27.225,0,49.096-16.654,56.852-41
		h6.666c31.64,0,57.047-25.741,57.047-57.382v-0.236C288.46,132.991,263.053,107.25,231.413,107.25z M167.895,247.25h-94.9
		c-26.579,0-48.535-20.146-48.535-44.909v-4.872c20,0.727,29.956,4.468,41.006,8.406c13.052,4.653,26.631,9.465,53.26,9.465
		s40-4.812,53.052-9.465c10.851-3.867,21.682-7.545,39.682-8.364v4.83C211.46,228.363,193.331,247.25,167.895,247.25z
		 M119.27,21.795c10.306,12.601,23.721,19.324,50.877,19.324c20.018,0,41.271,11.961,41.629,34.131H24.809
		c0.351-16.877,16.581-34.131,43.561-34.131C95.557,41.119,108.97,34.395,119.27,21.795z M211.46,91.25v32.799
		c-21,0.859-33.338,5.145-45.013,9.308c-12.313,4.389-23.859,8.535-47.72,8.535s-35.616-4.146-47.929-8.535
		c-11.861-4.229-24.338-8.588-46.338-9.348V91.25H211.46z M24.46,140.021c20,0.727,29.956,4.468,41.006,8.406
		c13.052,4.653,26.631,9.465,53.26,9.465s40-4.812,53.052-9.465c10.851-3.868,21.682-7.546,39.682-8.364v41.436
		c-21,0.858-33.338,5.145-45.013,9.307c-12.313,4.389-23.859,8.535-47.72,8.535s-35.616-4.146-47.929-8.535
		c-11.861-4.229-24.338-8.588-46.338-9.348V140.021z M272.46,164.868c0,22.818-18.23,41.382-41.047,41.382h-3.742
		c0.072-1.292-0.211-2.592-0.211-3.909V123.25h3.953c22.817,0,41.047,18.563,41.047,41.382V164.868z"/>
	<path d="M220.793,281.25h-201c-4.418,0-8,3.582-8,8s3.582,8,8,8h201c4.418,0,8-3.582,8-8S225.211,281.25,220.793,281.25z"/>
</g>
<g>
</g>
<g>
</g>
<g>
</g>
<g>
</g>
<g>
</g>
<g>
</g>
<g>
</g>
<g>
</g>
<g>
</g>
<g>
</g>
<g>
</g>
<g>
</g>
<g>
</g>
<g>
</g>
<g>
</g>
</svg>
